<svg width="51" height="51" viewBox="0 0 51 51" fill="none" xmlns="http://www.w3.org/2000/svg">
<path d="M36.1348 10.6658V6.89141C36.1348 6.56427 35.7589 6.3836 35.505 6.5838L13.4932 23.7762C13.3062 23.9216 13.1549 24.1079 13.0508 24.3207C12.9467 24.5335 12.8926 24.7673 12.8926 25.0042C12.8926 25.2411 12.9467 25.4749 13.0508 25.6877C13.1549 25.9006 13.3062 26.0868 13.4932 26.2322L35.505 43.4246C35.7637 43.6248 36.1348 43.4441 36.1348 43.117V39.3426C36.1348 39.1033 36.0225 38.8738 35.837 38.7273L18.2589 25.0066L35.837 11.2811C36.0225 11.1346 36.1348 10.9051 36.1348 10.6658Z" fill="#495057"/>
</svg>
