<svg width="51" height="51" viewBox="0 0 51 51" fill="none" xmlns="http://www.w3.org/2000/svg">
<path d="M38.5342 23.7758L16.5225 6.58339C16.4649 6.53811 16.3958 6.50997 16.323 6.5022C16.2502 6.49443 16.1767 6.50735 16.111 6.53947C16.0452 6.5716 15.9898 6.62162 15.9512 6.68381C15.9125 6.74599 15.8922 6.8178 15.8926 6.89101V10.6654C15.8926 10.9047 16.0049 11.1342 16.1904 11.2807L33.7686 25.0062L16.1904 38.7318C16 38.8783 15.8926 39.1078 15.8926 39.3471V43.1215C15.8926 43.4486 16.2686 43.6293 16.5225 43.4291L38.5342 26.2367C38.7213 26.0908 38.8726 25.9041 38.9767 25.6909C39.0808 25.4777 39.1349 25.2435 39.1349 25.0062C39.1349 24.769 39.0808 24.5348 38.9767 24.3216C38.8726 24.1084 38.7213 23.9217 38.5342 23.7758Z" fill="#495057"/>
</svg>
