<?xml version="1.0" encoding="utf-8"?>
<!-- Generator: Adobe Illustrator 28.3.0, SVG Export Plug-In . SVG Version: 6.00 Build 0)  -->
<svg version="1.1" xmlns="http://www.w3.org/2000/svg" xmlns:xlink="http://www.w3.org/1999/xlink" x="0px" y="0px"
	 viewBox="0 0 1440 1080" style="enable-background:new 0 0 1440 1080;" xml:space="preserve">
<style type="text/css">
	.st0{display:none;}
	.st1{fill:#212529;}
</style>
<g id="Шар_1" class="st0">
</g>
<g id="Шар_2">
	<rect x="99.5" y="313.5" class="st1" width="162" height="488"/>
	<rect x="288" y="315" class="st1" width="162" height="488"/>
	<rect x="216" y="477" class="st1" width="162" height="162"/>
	<rect x="540" y="315" class="st1" width="162" height="234"/>
	<rect x="729" y="315" class="st1" width="162" height="234"/>
	<rect x="981" y="576" class="st1" width="198" height="227"/>
	<path class="st1" d="M1298.85,549H1206V315h92.85c38.19,0,69.15,30.96,69.15,69.15v95.71C1368,518.04,1337.04,549,1298.85,549z"/>
	<path class="st1" d="M1299.42,801H1206V576h93.42c37.88,0,68.58,30.7,68.58,68.58v87.84C1368,770.3,1337.3,801,1299.42,801z"/>
	<rect x="981" y="315" class="st1" width="198" height="234"/>
	<rect x="684" y="315" class="st1" width="81" height="153"/>
	<rect x="1116" y="315" class="st1" width="144" height="153"/>
	<rect x="540" y="576" class="st1" width="162" height="225"/>
	<rect x="729" y="576" class="st1" width="162" height="225"/>
</g>
</svg>
