<svg width="48" height="12" viewBox="0 0 48 12" fill="none" xmlns="http://www.w3.org/2000/svg">
<path d="M0.76 11.5C0.653333 11.5 0.562667 11.468 0.488 11.404C0.424 11.3293 0.392 11.2387 0.392 11.132V0.683999C0.392 0.566666 0.424 0.476 0.488 0.412C0.562667 0.337333 0.653333 0.299999 0.76 0.299999H1.56C1.688 0.299999 1.784 0.331999 1.848 0.396C1.912 0.46 1.94933 0.513333 1.96 0.556L5.352 7.02L8.76 0.556C8.78133 0.513333 8.81867 0.46 8.872 0.396C8.936 0.331999 9.032 0.299999 9.16 0.299999H9.944C10.0613 0.299999 10.152 0.337333 10.216 0.412C10.2907 0.476 10.328 0.566666 10.328 0.683999V11.132C10.328 11.2387 10.2907 11.3293 10.216 11.404C10.152 11.468 10.0613 11.5 9.944 11.5H9.16C9.05333 11.5 8.96267 11.468 8.888 11.404C8.824 11.3293 8.792 11.2387 8.792 11.132V3.26L6.12 8.476C6.07733 8.58267 6.01333 8.668 5.928 8.732C5.84267 8.78533 5.736 8.812 5.608 8.812H5.112C4.97333 8.812 4.86133 8.78533 4.776 8.732C4.70133 8.668 4.63733 8.58267 4.584 8.476L1.912 3.26V11.132C1.912 11.2387 1.87467 11.3293 1.8 11.404C1.736 11.468 1.65067 11.5 1.544 11.5H0.76ZM15.0631 11.5C14.9458 11.5 14.8551 11.468 14.7911 11.404C14.7271 11.3293 14.6951 11.2387 14.6951 11.132V0.683999C14.6951 0.566666 14.7271 0.476 14.7911 0.412C14.8551 0.337333 14.9458 0.299999 15.0631 0.299999H21.6711C21.7885 0.299999 21.8791 0.337333 21.9431 0.412C22.0071 0.476 22.0391 0.566666 22.0391 0.683999V1.292C22.0391 1.40933 22.0071 1.5 21.9431 1.564C21.8791 1.628 21.7885 1.66 21.6711 1.66H16.2311V5.164H21.3191C21.4365 5.164 21.5271 5.20133 21.5911 5.276C21.6551 5.34 21.6871 5.43067 21.6871 5.548V6.14C21.6871 6.24667 21.6551 6.33733 21.5911 6.412C21.5271 6.476 21.4365 6.508 21.3191 6.508H16.2311V10.14H21.7991C21.9165 10.14 22.0071 10.172 22.0711 10.236C22.1351 10.3 22.1671 10.3907 22.1671 10.508V11.132C22.1671 11.2387 22.1351 11.3293 22.0711 11.404C22.0071 11.468 21.9165 11.5 21.7991 11.5H15.0631ZM26.3663 11.5C26.2489 11.5 26.1583 11.468 26.0943 11.404C26.0303 11.3293 25.9983 11.2387 25.9983 11.132V0.683999C25.9983 0.566666 26.0303 0.476 26.0943 0.412C26.1583 0.337333 26.2489 0.299999 26.3663 0.299999H27.1023C27.2303 0.299999 27.3263 0.331999 27.3903 0.396C27.4543 0.449333 27.4916 0.492 27.5023 0.523999L32.8143 8.684V0.683999C32.8143 0.566666 32.8463 0.476 32.9103 0.412C32.9743 0.337333 33.0649 0.299999 33.1823 0.299999H33.9503C34.0676 0.299999 34.1583 0.337333 34.2223 0.412C34.2969 0.476 34.3343 0.566666 34.3343 0.683999V11.116C34.3343 11.2227 34.2969 11.3133 34.2223 11.388C34.1583 11.4627 34.0729 11.5 33.9663 11.5H33.1983C33.0809 11.5 32.9903 11.468 32.9263 11.404C32.8729 11.34 32.8356 11.2973 32.8143 11.276L27.5183 3.196V11.132C27.5183 11.2387 27.4809 11.3293 27.4063 11.404C27.3423 11.468 27.2516 11.5 27.1343 11.5H26.3663ZM42.9316 11.66C42.0356 11.66 41.2623 11.5 40.6116 11.18C39.9716 10.86 39.4756 10.3747 39.1236 9.724C38.7823 9.06267 38.6116 8.21467 38.6116 7.18V0.683999C38.6116 0.566666 38.6436 0.476 38.7076 0.412C38.7716 0.337333 38.8623 0.299999 38.9796 0.299999H39.7956C39.913 0.299999 40.0036 0.337333 40.0676 0.412C40.1423 0.476 40.1796 0.566666 40.1796 0.683999V7.212C40.1796 8.25733 40.425 9.03067 40.9156 9.532C41.4063 10.0333 42.0783 10.284 42.9316 10.284C43.7743 10.284 44.441 10.0333 44.9316 9.532C45.433 9.03067 45.6836 8.25733 45.6836 7.212V0.683999C45.6836 0.566666 45.7156 0.476 45.7796 0.412C45.8543 0.337333 45.945 0.299999 46.0516 0.299999H46.8836C46.9903 0.299999 47.0756 0.337333 47.1396 0.412C47.2143 0.476 47.2516 0.566666 47.2516 0.683999V7.18C47.2516 8.21467 47.0756 9.06267 46.7236 9.724C46.3823 10.3747 45.8916 10.86 45.2516 11.18C44.6116 11.5 43.8383 11.66 42.9316 11.66Z" fill="#212529"/>
</svg>
