<svg width="82" height="40" viewBox="0 0 82 40" fill="none" xmlns="http://www.w3.org/2000/svg">
<path d="M1.76 25.5C1.65333 25.5 1.56267 25.468 1.488 25.404C1.424 25.3293 1.392 25.2387 1.392 25.132V14.684C1.392 14.5667 1.424 14.476 1.488 14.412C1.56267 14.3373 1.65333 14.3 1.76 14.3H2.56C2.688 14.3 2.784 14.332 2.848 14.396C2.912 14.46 2.94933 14.5133 2.96 14.556L6.352 21.02L9.76 14.556C9.78133 14.5133 9.81867 14.46 9.872 14.396C9.936 14.332 10.032 14.3 10.16 14.3H10.944C11.0613 14.3 11.152 14.3373 11.216 14.412C11.2907 14.476 11.328 14.5667 11.328 14.684V25.132C11.328 25.2387 11.2907 25.3293 11.216 25.404C11.152 25.468 11.0613 25.5 10.944 25.5H10.16C10.0533 25.5 9.96267 25.468 9.888 25.404C9.824 25.3293 9.792 25.2387 9.792 25.132V17.26L7.12 22.476C7.07733 22.5827 7.01333 22.668 6.928 22.732C6.84267 22.7853 6.736 22.812 6.608 22.812H6.112C5.97333 22.812 5.86133 22.7853 5.776 22.732C5.70133 22.668 5.63733 22.5827 5.584 22.476L2.912 17.26V25.132C2.912 25.2387 2.87467 25.3293 2.8 25.404C2.736 25.468 2.65067 25.5 2.544 25.5H1.76ZM16.0631 25.5C15.9458 25.5 15.8551 25.468 15.7911 25.404C15.7271 25.3293 15.6951 25.2387 15.6951 25.132V14.684C15.6951 14.5667 15.7271 14.476 15.7911 14.412C15.8551 14.3373 15.9458 14.3 16.0631 14.3H22.6711C22.7885 14.3 22.8791 14.3373 22.9431 14.412C23.0071 14.476 23.0391 14.5667 23.0391 14.684V15.292C23.0391 15.4093 23.0071 15.5 22.9431 15.564C22.8791 15.628 22.7885 15.66 22.6711 15.66H17.2311V19.164H22.3191C22.4365 19.164 22.5271 19.2013 22.5911 19.276C22.6551 19.34 22.6871 19.4307 22.6871 19.548V20.14C22.6871 20.2467 22.6551 20.3373 22.5911 20.412C22.5271 20.476 22.4365 20.508 22.3191 20.508H17.2311V24.14H22.7991C22.9165 24.14 23.0071 24.172 23.0711 24.236C23.1351 24.3 23.1671 24.3907 23.1671 24.508V25.132C23.1671 25.2387 23.1351 25.3293 23.0711 25.404C23.0071 25.468 22.9165 25.5 22.7991 25.5H16.0631ZM27.3663 25.5C27.2489 25.5 27.1583 25.468 27.0943 25.404C27.0303 25.3293 26.9983 25.2387 26.9983 25.132V14.684C26.9983 14.5667 27.0303 14.476 27.0943 14.412C27.1583 14.3373 27.2489 14.3 27.3663 14.3H28.1023C28.2303 14.3 28.3263 14.332 28.3903 14.396C28.4543 14.4493 28.4916 14.492 28.5023 14.524L33.8143 22.684V14.684C33.8143 14.5667 33.8463 14.476 33.9103 14.412C33.9743 14.3373 34.0649 14.3 34.1823 14.3H34.9503C35.0676 14.3 35.1583 14.3373 35.2223 14.412C35.2969 14.476 35.3343 14.5667 35.3343 14.684V25.116C35.3343 25.2227 35.2969 25.3133 35.2223 25.388C35.1583 25.4627 35.0729 25.5 34.9663 25.5H34.1983C34.0809 25.5 33.9903 25.468 33.9263 25.404C33.8729 25.34 33.8356 25.2973 33.8143 25.276L28.5183 17.196V25.132C28.5183 25.2387 28.4809 25.3293 28.4063 25.404C28.3423 25.468 28.2516 25.5 28.1343 25.5H27.3663ZM43.9316 25.66C43.0356 25.66 42.2623 25.5 41.6116 25.18C40.9716 24.86 40.4756 24.3747 40.1236 23.724C39.7823 23.0627 39.6116 22.2147 39.6116 21.18V14.684C39.6116 14.5667 39.6436 14.476 39.7076 14.412C39.7716 14.3373 39.8623 14.3 39.9796 14.3H40.7956C40.913 14.3 41.0036 14.3373 41.0676 14.412C41.1423 14.476 41.1796 14.5667 41.1796 14.684V21.212C41.1796 22.2573 41.425 23.0307 41.9156 23.532C42.4063 24.0333 43.0783 24.284 43.9316 24.284C44.7743 24.284 45.441 24.0333 45.9316 23.532C46.433 23.0307 46.6836 22.2573 46.6836 21.212V14.684C46.6836 14.5667 46.7156 14.476 46.7796 14.412C46.8543 14.3373 46.945 14.3 47.0516 14.3H47.8836C47.9903 14.3 48.0756 14.3373 48.1396 14.412C48.2143 14.476 48.2516 14.5667 48.2516 14.684V21.18C48.2516 22.2147 48.0756 23.0627 47.7236 23.724C47.3823 24.3747 46.8916 24.86 46.2516 25.18C45.6116 25.5 44.8383 25.66 43.9316 25.66Z" fill="#212529"/>
<path d="M61 21H63V19H61V21ZM61 25H63V23H61V25ZM61 17H63V15H61V17ZM65 21H79V19H65V21ZM65 25H79V23H65V25ZM65 15V17H79V15H65ZM61 21H63V19H61V21ZM61 25H63V23H61V25ZM61 17H63V15H61V17ZM65 21H79V19H65V21ZM65 25H79V23H65V25ZM65 15V17H79V15H65Z" fill="#495057"/>
</svg>
